# Blender v3.0.1 OBJ File: 'World Assets.blend'
# www.blender.org
mtllib snowy_tree1.mtl
o Cube
v 0.348094 5.588267 -0.349851
v 0.442005 3.588267 -0.443762
v 0.348094 5.588267 0.290637
v 0.442005 3.588267 0.384548
v -0.292394 5.588267 -0.349851
v -0.386305 3.588267 -0.443762
v -0.292394 5.588267 0.290637
v -0.386305 3.588267 0.384548
v 0.348094 6.800295 0.091414
v -0.292394 6.800295 0.091414
v 0.348094 6.800295 -0.549074
v -0.292394 6.800295 -0.549074
v 0.115711 7.973000 0.449699
v -0.524778 7.973000 0.449699
v 0.115711 7.973000 -0.190789
v -0.524778 7.973000 -0.190789
v 0.115711 9.241383 0.449699
v -0.524778 9.241383 0.449699
v 0.115711 9.241383 -0.190789
v -0.524778 9.241383 -0.190789
v 0.024952 10.570795 0.065570
v -0.434019 10.570795 0.065570
v 0.024952 10.570795 -0.393401
v -0.434019 10.570795 -0.393401
v -0.060967 11.570734 -0.020348
v -0.348100 11.570734 -0.020348
v -0.060967 11.570734 -0.307482
v -0.348100 11.570734 -0.307482
v -0.236549 10.321377 -1.155146
v 0.545282 10.321377 -0.778636
v 0.738379 10.321377 0.067375
v 0.197335 10.321377 0.745823
v -0.670433 10.321377 0.745823
v -1.211477 10.321377 0.067375
v -1.018381 10.321377 -0.778636
v 0.545282 10.321377 -0.778636
v -0.705554 9.035000 -1.098486
v 0.334993 9.042938 -1.050250
v 0.945573 9.148411 -0.212874
v 0.666406 9.271992 0.783078
v -0.292289 9.320623 1.187636
v -1.208595 9.257687 0.696158
v -1.392516 9.130571 -0.321261
v -0.236549 10.321377 -1.155146
v -1.120835 8.186064 -1.163986
v 0.065999 8.152607 -1.432230
v 1.012313 8.039423 -0.675043
v 1.005512 7.931743 0.537396
v 0.050718 7.910650 1.292097
v -1.133090 7.992028 1.020754
v -1.654481 8.114599 -0.072305
v -0.118531 10.837864 0.178173
v -1.120835 8.186064 -1.163986
v 0.065999 8.152607 -1.432230
v 1.012313 8.039423 -0.675043
v 1.005512 7.931743 0.537396
v 0.050718 7.910650 1.292097
v -1.133090 7.992028 1.020754
v -1.654481 8.114599 -0.072305
v -0.378606 6.834818 -1.703800
v 0.994636 6.872200 -1.184309
v 1.443778 6.942052 0.212277
v 0.630608 6.991774 1.434301
v -0.832542 6.983923 1.561554
v -1.843889 6.924413 0.498212
v -1.641870 6.858055 -0.955007
v -0.821402 5.901438 -2.010054
v 0.909164 5.859190 -1.737453
v 1.772969 5.716970 -0.219371
v 1.119549 5.581872 1.401045
v -0.559057 5.555625 1.903588
v -1.998824 5.657997 0.909835
v -2.115580 5.811898 -0.831899
v -0.502736 1.625309 -0.560193
v -0.502736 1.625309 0.500979
v 0.558436 1.625309 -0.560193
v 0.558436 1.625309 0.500979
v -0.502736 1.625309 -0.560193
v -0.502736 1.625309 0.500979
v 0.558436 1.625309 -0.560193
v 0.558436 1.625309 0.500979
v -0.629142 0.255620 -0.686599
v -0.629142 0.255620 0.627385
v 0.684842 0.255620 -0.686599
v 0.684842 0.255620 0.627385
v -0.827442 -0.828649 -0.884899
v -0.827442 -0.828649 0.825685
v 0.883142 -0.828649 -0.884899
v 0.883142 -0.828649 0.825685
v -0.236549 10.321377 -1.155146
v 0.545282 10.321377 -0.778636
v 0.581280 10.344398 -0.807343
v 0.738379 10.321377 0.067375
v 0.197335 10.321377 0.745823
v -0.670433 10.321377 0.745823
v -1.211477 10.321377 0.067375
v -1.018381 10.321377 -0.778636
v -0.705554 9.035000 -1.098486
v 0.334993 9.042938 -1.050250
v -0.236549 10.344398 -1.201189
v 0.945573 9.148411 -0.212874
v 0.666406 9.271992 0.783078
v -0.292289 9.320623 1.187636
v -1.208595 9.257687 0.696158
v -1.392516 9.130571 -0.321261
v 0.079804 8.184024 -1.483034
v 0.738379 10.321377 0.067375
v 0.197335 10.321377 0.745823
v -0.670433 10.321377 0.745823
v -1.211477 10.321377 0.067375
v -1.018381 10.321377 -0.778636
v -0.705554 9.035000 -1.098486
v 0.334993 9.042938 -1.050250
v -1.153427 8.218788 -1.204304
v 0.945573 9.148411 -0.212874
v 0.666406 9.271992 0.783078
v -0.292289 9.320623 1.187636
v -1.208595 9.257687 0.696158
v -1.392516 9.130571 -0.321261
v -0.236549 12.372856 -0.155146
v 0.783268 10.344398 0.077621
v 0.217312 10.344398 0.787307
v -0.690410 10.344398 0.787307
v -1.256366 10.344398 0.077621
v -1.054379 10.344398 -0.807343
v -0.723606 9.052572 -1.143378
v 0.356852 9.060816 -1.093292
v -0.240507 11.605978 -0.305510
v 0.990851 9.170332 -0.223798
v 0.700976 9.298655 0.810355
v -0.294491 9.349152 1.230430
v -1.245942 9.283800 0.720101
v -1.436917 9.151810 -0.336343
v -0.115583 10.898859 0.183607
v 1.063111 8.066416 -0.696248
v 1.056045 7.954525 0.563589
v 0.063925 7.932608 1.347793
v -1.166161 8.017168 1.065843
v -1.707934 8.144530 -0.069946
v -0.383597 6.859596 -1.759655
v 1.034137 6.898189 -1.223333
v -0.265088 10.357672 -0.181250
v 1.497831 6.970305 0.218502
v 0.658315 7.021637 1.480118
v -0.852240 7.013533 1.611494
v -1.896354 6.952095 0.513700
v -1.687789 6.883586 -0.986602
v -0.836849 5.933502 -2.059974
v 0.940709 5.890107 -1.779971
v -0.198567 9.810751 0.274517
v 1.827969 5.744025 -0.220667
v 1.156807 5.605258 1.443749
v -0.567379 5.578299 1.959938
v -2.046242 5.683450 0.939201
v -2.166168 5.841530 -0.849828
vt 0.781250 0.535156
vt 0.781250 0.535156
vt 0.781250 0.535156
vt 0.781250 0.535156
vt 0.781250 0.535156
vt 0.781250 0.535156
vt 0.781250 0.535156
vt 0.781250 0.535156
vt 0.781250 0.535156
vt 0.781250 0.535156
vt 0.781250 0.535156
vt 0.781250 0.535156
vt 0.781250 0.535156
vt 0.781250 0.535156
vt 0.781250 0.535156
vt 0.781250 0.535156
vt 0.781250 0.535156
vt 0.781250 0.535156
vt 0.781250 0.535156
vt 0.781250 0.535156
vt 0.781250 0.535156
vt 0.781250 0.535156
vt 0.781250 0.535156
vt 0.781250 0.535156
vt 0.781250 0.535156
vt 0.781250 0.535156
vt 0.781250 0.535156
vt 0.781250 0.535156
vt 0.781250 0.535156
vt 0.781250 0.535156
vt 0.953125 0.179852
vt 0.953125 0.179852
vt 0.953125 0.179852
vt 0.953125 0.179852
vt 0.953125 0.179852
vt 0.953125 0.179852
vt 0.953125 0.179852
vt 0.953125 0.179852
vt 0.953125 0.179852
vt 0.953125 0.179852
vt 0.953125 0.179852
vt 0.953125 0.179852
vt 0.953125 0.179852
vt 0.953125 0.179852
vt 0.953125 0.179852
vt 0.953125 0.179852
vt 0.953125 0.179852
vt 0.953125 0.179852
vt 0.953125 0.179852
vt 0.953125 0.179852
vt 0.953125 0.179852
vt 0.953125 0.179852
vt 0.953125 0.179852
vt 0.953125 0.179852
vt 0.953125 0.179852
vt 0.953125 0.179852
vt 0.953125 0.179852
vt 0.953125 0.179852
vt 0.953125 0.179852
vt 0.953125 0.179852
vt 0.953125 0.179852
vt 0.953125 0.179852
vt 0.953125 0.179852
vt 0.953125 0.179852
vt 0.953125 0.179852
vt 0.953125 0.179852
vt 0.046875 0.910321
vt 0.046875 0.910321
vt 0.046875 0.910321
vt 0.046875 0.910321
vt 0.046875 0.910321
vt 0.046875 0.910321
vt 0.046875 0.910321
vt 0.046875 0.910321
vt 0.046875 0.910321
vt 0.046875 0.910321
vt 0.046875 0.910321
vt 0.046875 0.910321
vt 0.046875 0.910321
vt 0.046875 0.910321
vt 0.046875 0.910321
vt 0.046875 0.910321
vt 0.046875 0.910321
vt 0.046875 0.910321
vt 0.046875 0.910321
vt 0.046875 0.910321
vt 0.953125 0.179852
vt 0.953125 0.179852
vt 0.953125 0.179852
vt 0.953125 0.179852
vt 0.953125 0.179852
vt 0.953125 0.179852
vt 0.953125 0.179852
vt 0.046875 0.910321
vt 0.046875 0.910321
vt 0.046875 0.910321
vt 0.046875 0.910321
vt 0.046875 0.910321
vt 0.046875 0.910321
vt 0.046875 0.910321
vt 0.046875 0.910321
vt 0.046875 0.910321
vt 0.046875 0.910321
vt 0.046875 0.910321
vt 0.046875 0.910321
vt 0.046875 0.910321
vt 0.046875 0.910321
vt 0.046875 0.910321
vt 0.046875 0.910321
vt 0.953125 0.179852
vt 0.953125 0.179852
vt 0.953125 0.179852
vt 0.953125 0.179852
vt 0.953125 0.179852
vt 0.953125 0.179852
vt 0.953125 0.179852
vt 0.046875 0.910321
vt 0.046875 0.910321
vt 0.046875 0.910321
vt 0.046875 0.910321
vt 0.046875 0.910321
vt 0.046875 0.910321
vt 0.953125 0.179852
vt 0.953125 0.179852
vt 0.953125 0.179852
vt 0.953125 0.179852
vt 0.953125 0.179852
vt 0.953125 0.179852
vt 0.953125 0.179852
vt 0.781250 0.535156
vt 0.781250 0.535156
vt 0.781250 0.535156
vt 0.781250 0.535156
vt 0.781250 0.535156
vt 0.781250 0.535156
vt 0.781250 0.535156
vt 0.781250 0.535156
vt 0.781250 0.535156
vt 0.781250 0.535156
vt 0.781250 0.535156
vt 0.781250 0.535156
vt 0.781250 0.535156
vt 0.781250 0.535156
vt 0.953125 0.179852
vt 0.953125 0.179852
vt 0.953125 0.179852
vt 0.953125 0.179852
vt 0.953125 0.179852
vt 0.953125 0.179852
vt 0.953125 0.179852
vt 0.953125 0.179852
vt 0.953125 0.179852
vt 0.953125 0.179852
vt 0.953125 0.179852
vt 0.953125 0.179852
vt 0.953125 0.179852
vt 0.953125 0.179852
vt 0.054688 0.945477
vt 0.054688 0.945477
vt 0.054688 0.945477
vt 0.054688 0.945477
vt 0.054688 0.945477
vt 0.054688 0.945477
vt 0.054688 0.945477
vt 0.054688 0.945477
vt 0.054688 0.945477
vt 0.054688 0.945477
vt 0.054688 0.945477
vt 0.054688 0.945477
vt 0.054688 0.945477
vt 0.054688 0.945477
vt 0.054688 0.945477
vt 0.054688 0.945477
vt 0.054688 0.945477
vt 0.054688 0.945477
vt 0.054688 0.945477
vt 0.054688 0.945477
vt 0.054688 0.945477
vt 0.054688 0.945477
vt 0.054688 0.945477
vt 0.054688 0.945477
vt 0.054688 0.945477
vt 0.054688 0.945477
vt 0.054688 0.945477
vt 0.054688 0.945477
vt 0.054688 0.945477
vt 0.054688 0.945477
vt 0.046875 0.910321
vt 0.046875 0.910321
vt 0.046875 0.910321
vn -1.0000 0.0000 0.0000
vn 0.0000 0.0469 0.9989
vn -0.9989 0.0469 0.0000
vn 0.0000 0.0592 -0.9982
vn 0.9989 0.0469 0.0000
vn 0.0000 0.0469 -0.9989
vn 0.0000 0.2922 -0.9564
vn 1.0000 0.0000 0.0000
vn 0.0000 -0.1622 -0.9868
vn 0.0000 0.1622 0.9868
vn 0.9809 0.1944 0.0000
vn -0.9809 -0.1944 0.0000
vn 0.0000 -0.2922 0.9564
vn -0.9977 0.0681 0.0000
vn 0.0000 0.0000 1.0000
vn 0.0000 0.0000 -1.0000
vn -0.9963 0.0856 0.0000
vn 0.0000 0.2776 0.9607
vn 0.0000 -0.1507 -0.9886
vn 0.9977 0.0681 0.0000
vn 0.0000 1.0000 0.0000
vn 0.0000 0.0856 0.9963
vn 0.0000 0.0856 -0.9963
vn 0.9963 0.0856 0.0000
vn 0.0000 -1.0000 0.0000
vn 0.0018 -0.9923 0.1236
vn -0.1779 0.4971 -0.8493
vn 0.5915 0.4442 -0.6729
vn 0.9304 0.3645 0.0376
vn 0.5836 0.3181 0.7472
vn -0.1879 0.3398 0.9215
vn -0.0481 -0.9949 -0.0886
vn -0.8030 0.4134 0.4294
vn -0.7985 0.4834 -0.3587
vn 0.4702 -0.8760 -0.1074
vn -0.4934 -0.8687 -0.0437
vn -0.1525 -0.9065 0.3936
vn 0.4129 -0.8545 -0.3150
vn -0.3436 -0.8610 0.3750
vn -0.1472 -0.8228 -0.5489
vn -0.2858 -0.9029 0.3211
vn 0.2580 -0.9181 0.3008
vn 0.1803 -0.8930 -0.4123
vn 0.0501 -0.8503 0.5239
vn 0.0670 -0.8299 -0.5538
vn -0.4775 -0.8301 -0.2878
vn 0.0094 -0.9989 0.0469
vn 0.1300 -0.9130 0.3866
vn 0.4426 -0.8934 -0.0769
vn -0.2392 -0.8953 -0.3758
vn 0.4123 -0.8570 0.3092
vn -0.3364 -0.8363 -0.4331
vn -0.4799 -0.8674 0.1316
vn 0.4410 -0.8915 0.1035
vn -0.0106 -0.9961 -0.0873
vn 0.2623 -0.8510 -0.4550
vn -0.4724 -0.8810 -0.0254
vn 0.0000 0.0592 0.9982
vn -0.9982 0.0592 0.0000
vn 0.9982 0.0592 0.0000
vn 0.9958 0.0919 0.0000
vn 0.0000 0.1799 0.9837
vn 0.0000 0.0919 -0.9958
vn 0.0000 0.0919 0.9958
vn -0.9958 0.0919 0.0000
vn -0.9837 0.1799 0.0000
vn 0.9837 0.1799 0.0000
vn 0.0000 0.1799 -0.9837
vn -0.4731 -0.8744 -0.1080
vn 0.4731 -0.8744 -0.1080
vn -0.4760 -0.8579 0.1932
vn 0.3947 -0.9021 -0.1742
vn -0.3794 -0.8744 0.3025
vn -0.2292 -0.8153 0.5317
vn 0.2105 -0.8744 -0.4372
vn 0.0000 -0.8744 0.4852
vn 0.0244 -0.9276 -0.3729
vn 0.1914 -0.8121 0.5512
vn -0.2105 -0.8744 -0.4372
vn 0.3794 -0.8744 0.3025
vn -0.3632 -0.9079 -0.2093
vn 0.4691 -0.8507 0.2370
vn 0.3935 0.4214 -0.8171
vn 0.8842 0.4214 -0.2018
vn 0.7090 0.4214 0.5654
vn 0.0000 0.4214 0.9069
vn -0.7090 0.4214 0.5654
vn -0.8842 0.4214 -0.2018
vn -0.3935 0.4214 -0.8171
vn 0.0418 0.3044 -0.9516
vn 0.7347 0.3520 -0.5800
vn 0.8737 0.4481 0.1893
vn 0.3543 0.5203 0.7770
vn -0.4325 0.5143 0.7405
vn -0.8942 0.4346 0.1074
vn -0.6831 0.3411 -0.6457
vn -0.1766 0.5057 -0.8444
vn 0.5894 0.4530 -0.6689
vn 0.9267 0.3737 0.0384
vn 0.5814 0.3275 0.7448
vn -0.1865 0.3491 0.9183
vn -0.7988 0.4224 0.4284
vn -0.7944 0.4920 -0.3561
vn 0.3181 0.3810 -0.8682
vn 0.8608 0.4129 -0.2975
vn 0.7524 0.4485 0.4824
vn 0.0744 0.4610 0.8843
vn -0.6626 0.4409 0.6055
vn -0.9036 0.4034 -0.1440
vn -0.4672 0.3767 -0.7999
vn 0.1472 0.4923 -0.8579
vn 0.7951 0.4462 -0.4106
vn 0.8477 0.3770 0.3733
vn 0.2652 0.3367 0.9035
vn -0.5136 0.3557 0.7808
vn -0.9024 0.4197 0.0976
vn -0.6083 0.4805 -0.6317
usemtl Material
s off
f 5/1/1 7/2/1 10/3/1 12/4/1
f 4/5/2 3/6/2 7/2/2 8/7/2
f 8/7/3 7/2/3 5/1/3 6/8/3
f 6/8/4 2/9/4 76/10/4 74/11/4
f 2/9/5 1/12/5 3/6/5 4/5/5
f 6/8/6 5/1/6 1/12/6 2/9/6
f 11/13/7 12/4/7 16/14/7 15/15/7
f 3/6/8 1/12/8 11/13/8 9/16/8
f 1/12/9 5/1/9 12/4/9 11/13/9
f 7/2/10 3/6/10 9/16/10 10/3/10
f 16/14/1 14/17/1 18/18/1 20/19/1
f 9/16/11 11/13/11 15/15/11 13/20/11
f 12/4/12 10/3/12 14/17/12 16/14/12
f 10/3/13 9/16/13 13/20/13 14/17/13
f 20/19/14 18/18/14 22/21/14 24/22/14
f 14/17/15 13/20/15 17/23/15 18/18/15
f 15/15/16 16/14/16 20/19/16 19/24/16
f 13/20/8 15/15/8 19/24/8 17/23/8
f 24/22/17 22/21/17 26/25/17 28/26/17
f 18/18/18 17/23/18 21/27/18 22/21/18
f 19/24/19 20/19/19 24/22/19 23/28/19
f 17/23/20 19/24/20 23/28/20 21/27/20
f 27/29/21 28/26/21 26/25/21 25/30/21
f 22/21/22 21/27/22 25/30/22 26/25/22
f 23/28/23 24/22/23 28/26/23 27/29/23
f 21/27/24 23/28/24 27/29/24 25/30/24
f 33/31/15 32/32/15 94/33/15 95/34/15
f 38/35/15 37/36/15 98/37/15 99/38/15
f 41/39/15 40/40/15 102/41/15 103/42/15
f 29/43/15 35/44/15 97/45/15 90/46/15
f 32/32/15 31/47/15 93/48/15 94/33/15
f 29/43/25 30/49/25 31/47/25 32/32/25 33/31/25 34/50/25 35/44/25
f 37/36/15 43/51/15 105/52/15 98/37/15
f 40/40/15 39/53/15 101/54/15 102/41/15
f 35/44/15 34/50/15 96/55/15 97/45/15
f 31/47/15 30/49/15 91/56/15 93/48/15
f 43/51/15 42/57/15 104/58/15 105/52/15
f 39/53/15 38/35/15 99/38/15 101/54/15
f 34/50/15 33/31/15 95/34/15 96/55/15
f 37/36/26 38/35/26 39/53/26 40/40/26 41/39/26 42/57/26 43/51/26
f 42/57/15 41/39/15 103/42/15 104/58/15
f 30/49/15 29/43/15 90/46/15 91/56/15
f 45/59/27 52/60/27 46/61/27
f 46/61/28 52/60/28 47/62/28
f 47/62/29 52/60/29 48/63/29
f 48/63/30 52/60/30 49/64/30
f 49/64/31 52/60/31 50/65/31
f 45/59/32 46/61/32 47/62/32 48/63/32 49/64/32 50/65/32 51/66/32
f 50/65/33 52/60/33 51/66/33
f 51/66/34 52/60/34 45/59/34
f 62/67/35 61/68/35 141/69/35 143/70/35
f 73/71/36 72/72/36 154/73/36 155/74/36
f 58/75/37 57/76/37 137/77/37 138/78/37
f 69/79/38 68/80/38 149/81/38 151/82/38
f 65/83/39 64/84/39 145/85/39 146/86/39
f 53/87/32 54/88/32 55/89/32 56/90/32 57/91/32 58/92/32 59/93/32
f 54/94/40 53/95/40 114/96/40 106/97/40
f 72/72/41 71/98/41 153/99/41 154/73/41
f 57/76/42 56/100/42 136/101/42 137/77/42
f 61/68/43 60/102/43 140/103/43 141/69/43
f 64/84/44 63/104/44 144/105/44 145/85/44
f 68/80/45 67/106/45 148/107/45 149/81/45
f 53/95/46 59/108/46 139/109/46 114/96/46
f 60/110/47 61/111/47 62/112/47 63/113/47 64/114/47 65/115/47 66/116/47
f 71/98/48 70/117/48 152/118/48 153/99/48
f 56/100/49 55/119/49 135/120/49 136/101/49
f 60/102/50 66/121/50 147/122/50 140/103/50
f 63/104/51 62/67/51 143/70/51 144/105/51
f 67/106/52 73/71/52 155/74/52 148/107/52
f 59/108/53 58/75/53 138/78/53 139/109/53
f 70/117/54 69/79/54 151/82/54 152/118/54
f 67/123/55 68/124/55 69/125/55 70/126/55 71/127/55 72/128/55 73/129/55
f 55/119/56 54/94/56 106/97/56 135/120/56
f 66/121/57 65/83/57 146/86/57 147/122/57
f 77/130/15 75/131/15 79/132/15 81/133/15
f 4/5/58 8/7/58 75/131/58 77/130/58
f 8/7/59 6/8/59 74/11/59 75/131/59
f 2/9/60 4/5/60 77/130/60 76/10/60
f 80/134/61 81/133/61 85/135/61 84/136/61
f 75/131/15 74/11/15 78/137/15 79/132/15
f 76/10/15 77/130/15 81/133/15 80/134/15
f 74/11/15 76/10/15 80/134/15 78/137/15
f 85/135/62 83/138/62 87/139/62 89/140/62
f 78/137/63 80/134/63 84/136/63 82/141/63
f 81/133/64 79/132/64 83/138/64 85/135/64
f 79/132/65 78/137/65 82/141/65 83/138/65
f 86/142/25 88/143/25 89/140/25 87/139/25
f 83/138/66 82/141/66 86/142/66 87/139/66
f 84/136/67 85/135/67 89/140/67 88/143/67
f 82/141/68 84/136/68 88/143/68 86/142/68
f 101/54/15 99/38/15 113/144/15 115/145/15
f 96/55/15 95/34/15 109/146/15 110/147/15
f 104/58/15 103/42/15 117/148/15 118/149/15
f 91/56/15 90/46/15 44/150/15 36/151/15
f 95/34/15 94/33/15 108/152/15 109/146/15
f 99/38/15 98/37/15 112/153/15 113/144/15
f 103/42/15 102/41/15 116/154/15 117/148/15
f 90/46/15 97/45/15 111/155/15 44/150/15
f 94/33/15 93/48/15 107/156/15 108/152/15
f 98/37/15 105/52/15 119/157/15 112/153/15
f 102/41/15 101/54/15 115/145/15 116/154/15
f 97/45/15 96/55/15 110/147/15 111/155/15
f 93/48/15 91/56/15 36/151/15 107/156/15
f 105/52/15 104/58/15 118/149/15 119/157/15
f 111/158/69 110/159/69 124/160/69 125/161/69
f 107/162/70 36/163/70 92/164/70 121/165/70
f 119/166/71 118/167/71 132/168/71 133/169/71
f 115/170/72 113/171/72 127/172/72 129/173/72
f 110/159/73 109/174/73 123/175/73 124/160/73
f 118/167/74 117/176/74 131/177/74 132/168/74
f 36/163/75 44/178/75 100/179/75 92/164/75
f 109/174/76 108/180/76 122/181/76 123/175/76
f 113/171/77 112/182/77 126/183/77 127/172/77
f 117/176/78 116/184/78 130/185/78 131/177/78
f 44/178/79 111/158/79 125/161/79 100/179/79
f 108/180/80 107/162/80 121/165/80 122/181/80
f 112/182/81 119/166/81 133/169/81 126/183/81
f 116/184/82 115/170/82 129/173/82 130/185/82
f 100/179/83 120/186/83 92/164/83
f 92/164/84 120/186/84 121/165/84
f 121/165/85 120/186/85 122/181/85
f 122/181/86 120/186/86 123/175/86
f 123/175/87 120/186/87 124/160/87
f 124/160/88 120/186/88 125/161/88
f 125/161/89 120/186/89 100/179/89
f 126/183/90 128/187/90 127/172/90
f 127/172/91 128/187/91 129/173/91
f 129/173/92 128/187/92 130/185/92
f 130/185/93 128/187/93 131/177/93
f 131/177/94 128/187/94 132/168/94
f 132/168/95 128/187/95 133/169/95
f 133/169/96 128/187/96 126/183/96
f 114/96/97 134/188/97 106/97/97
f 106/97/98 134/188/98 135/120/98
f 135/120/99 134/188/99 136/101/99
f 136/101/100 134/188/100 137/77/100
f 137/77/101 134/188/101 138/78/101
f 138/78/102 134/188/102 139/109/102
f 139/109/103 134/188/103 114/96/103
f 140/103/104 142/189/104 141/69/104
f 141/69/105 142/189/105 143/70/105
f 143/70/106 142/189/106 144/105/106
f 144/105/107 142/189/107 145/85/107
f 145/85/108 142/189/108 146/86/108
f 146/86/109 142/189/109 147/122/109
f 147/122/110 142/189/110 140/103/110
f 148/107/111 150/190/111 149/81/111
f 149/81/112 150/190/112 151/82/112
f 151/82/113 150/190/113 152/118/113
f 152/118/114 150/190/114 153/99/114
f 153/99/115 150/190/115 154/73/115
f 154/73/116 150/190/116 155/74/116
f 155/74/117 150/190/117 148/107/117
