# Blender v3.0.1 OBJ File: 'World Assets.blend'
# www.blender.org
mtllib snowy_tree2.mtl
o Cube.001
v 0.498209 5.437253 -0.272707
v 0.592120 3.437254 -0.366618
v 0.498209 5.437253 0.367781
v 0.592120 3.437254 0.461692
v -0.142279 5.437253 -0.272707
v -0.236190 3.437254 -0.366618
v -0.142279 5.437253 0.367781
v -0.236190 3.437254 0.461692
v 0.498209 6.649282 0.168559
v -0.142279 6.649282 0.168559
v 0.498209 6.649282 -0.471930
v -0.142279 6.649282 -0.471930
v 0.265825 7.821986 0.526843
v -0.374663 7.821986 0.526843
v 0.265825 7.821997 -0.115487
v -0.374663 7.821997 -0.115487
v 0.265825 9.090368 0.526843
v -0.374663 9.090368 0.526843
v 0.265825 9.090368 -0.113645
v -0.374663 9.090368 -0.113645
v 0.175066 10.419781 0.142714
v -0.283904 10.419781 0.142714
v 0.175066 10.419781 -0.316256
v -0.283904 10.419781 -0.316256
v 0.089148 11.419720 0.056796
v -0.197986 11.419720 0.056796
v 0.089148 11.419720 -0.230338
v -0.197986 11.419720 -0.230338
v 0.048462 6.054447 -1.431939
v 0.307467 6.054447 -1.431939
v 0.307467 6.299511 -1.472221
v 0.048462 6.299511 -1.472221
v 0.498209 6.043267 0.268170
v 0.498209 6.043267 -0.372318
v -0.142279 6.043267 -0.372318
v -0.142279 6.043267 0.268170
v -0.352622 1.474295 -0.483049
v -0.352622 1.474295 0.578124
v 0.708551 1.474295 -0.483049
v 0.708551 1.474295 0.578124
v -0.352622 1.474295 -0.483049
v -0.352622 1.474295 0.578124
v 0.708551 1.474295 -0.483049
v 0.708551 1.474295 0.578124
v -0.479027 0.104606 -0.609454
v -0.479027 0.104606 0.704529
v 0.834956 0.104606 -0.609454
v 0.834956 0.104606 0.704529
v -0.677327 -0.979662 -0.807755
v -0.677327 -0.979662 0.902829
v 1.033257 -0.979662 -0.807755
v 1.033257 -0.979662 0.902829
v 0.067219 5.134254 2.055619
v 0.288710 5.134254 2.055619
v 0.067219 4.924685 2.090066
v 0.288710 4.924685 2.090066
v -4.051412 7.305100 0.084385
v -4.051412 7.305100 0.238035
v -4.032830 7.211325 0.055735
v -4.032830 7.211325 0.209385
v -2.582084 6.966091 0.281482
v -2.582084 6.966091 -0.049411
v -2.622103 7.168041 0.012288
v -2.622103 7.168041 0.343182
v 3.926359 7.047960 0.068272
v 3.914224 7.109200 0.086982
v 3.926359 7.047960 -0.032069
v 3.914224 7.109200 -0.013359
v 2.559054 6.733423 0.124186
v 2.559054 6.733423 -0.113614
v 2.530295 6.878557 0.168528
v 2.530295 6.878557 -0.069273
v -0.297202 7.431085 0.407415
v -0.219741 7.040183 0.287987
v 0.420748 7.040183 0.287987
v 0.343286 7.431085 0.407415
v 0.420748 7.040183 -0.352501
v 0.343286 7.431085 -0.233073
v -0.297202 7.431085 -0.233073
v -0.219741 7.040183 -0.352501
v 0.427090 5.641257 -3.299780
v 0.427090 5.529668 -3.281438
v 0.309154 5.529668 -3.281438
v 0.309154 5.641257 -3.299780
v 0.146349 5.198620 3.288821
v 0.146349 5.258447 3.278987
v 0.209580 5.258447 3.278987
v 0.209580 5.198620 3.288821
v -0.530415 6.152165 1.770833
v -0.835645 6.152165 1.770833
v -0.567330 6.338452 1.827747
v -0.872559 6.338452 1.827747
v -0.624484 5.981692 2.611250
v -0.736984 5.937266 2.630329
v -0.665991 6.049137 2.618593
v -0.778491 6.004712 2.637672
v -0.344410 9.533505 0.398800
v -0.314157 9.976643 0.270757
v -0.314157 9.976644 -0.248719
v -0.344410 9.533506 -0.181182
v 0.235572 9.533505 0.398800
v 0.205319 9.976643 0.270757
v 0.205319 9.976644 -0.248719
v 0.235572 9.533506 -0.181182
v -2.665491 8.707216 0.194142
v -2.653508 8.882737 0.143426
v -2.653508 8.882738 -0.062331
v -2.665490 8.707217 -0.035581
v -3.558589 8.812020 -0.210196
v -3.552564 8.900283 -0.235699
v -3.552564 8.900284 -0.339166
v -3.558589 8.812021 -0.325714
v -0.966293 8.936049 -2.018290
v -0.732732 8.936049 -2.018290
v -0.955261 9.097644 -2.042918
v -0.743764 9.097644 -2.042918
v -1.585238 9.455332 -3.048182
v -1.471728 9.455332 -3.048182
v -1.579876 9.533865 -3.060152
v -1.477090 9.533865 -3.060152
v -0.374663 8.139082 0.526843
v -0.374663 8.456178 0.526843
v -0.374663 8.773273 0.526843
v -0.374663 8.773273 -0.113645
v -0.374663 8.456177 -0.113645
v -0.374663 8.139071 -0.111803
v 0.265825 8.139082 0.526843
v 0.265825 8.456178 0.526843
v 0.265825 8.773273 0.526843
v 0.265825 8.773273 -0.113645
v 0.265825 8.456177 -0.113645
v 0.265825 8.139071 -0.111803
v -0.374663 8.456177 -0.113645
v 0.265825 8.456177 -0.113645
v 0.009647 8.349125 1.794144
v -0.118485 8.349125 1.794144
v -0.118485 8.285688 1.794144
v 0.009647 8.285688 1.794144
v 1.078154 8.215610 0.372268
v 1.078154 8.379650 0.372268
v 1.078154 8.379650 0.040930
v 1.078154 8.215610 0.040930
v 1.687575 8.427444 0.247309
v 1.687575 8.500836 0.247309
v 1.687575 8.500836 0.099066
v 1.687575 8.427444 0.099066
v 2.235558 8.826509 0.197786
v 2.235558 8.850865 0.197786
v 2.235558 8.850865 0.148589
v 2.235558 8.826509 0.148589
v 1.021047 9.248700 0.016510
v 1.021047 9.248700 0.349783
v 1.005305 9.479283 -0.018633
v 1.005305 9.479283 0.283157
v 1.027383 9.249309 0.016510
v 1.027383 9.249309 0.349783
v 0.998968 9.478676 -0.018633
v 0.998968 9.478676 0.283157
v 1.572472 9.405362 0.084992
v 1.572472 9.405362 0.256621
v 1.530258 9.516647 0.066894
v 1.530258 9.516647 0.222310
v 1.992584 9.693637 0.120199
v 1.992584 9.693637 0.208726
v 1.960664 9.746078 0.110864
v 1.960664 9.746078 0.191028
v -0.215030 7.922148 -0.993444
v 0.106192 7.922148 -0.993444
v -0.215030 8.079232 -0.968632
v 0.106192 8.079232 -0.968632
v -0.141827 8.258739 -1.993172
v 0.032989 8.258739 -1.993172
v -0.141827 8.334308 -1.950980
v 0.032989 8.334308 -1.950980
v -0.108401 8.764701 -2.537155
v -0.000437 8.764701 -2.537155
v -0.108401 8.804591 -2.501576
v -0.000437 8.804591 -2.501576
v -0.378245 7.884009 0.527925
v -0.378245 7.884019 -0.114405
v -2.625685 7.230064 0.344263
v -2.625685 7.230064 0.013370
v 2.526713 6.940580 -0.068191
v 0.339704 7.493107 -0.231991
v 0.339704 7.493107 0.408497
v 2.526713 6.940580 0.169609
v 0.417166 7.102206 0.289068
v -0.223323 7.102206 0.289068
v -0.570912 6.400475 1.828829
v -0.876141 6.400475 1.828829
v 0.231990 9.595530 -0.180100
v 0.231990 9.595529 0.399882
v -0.347992 9.595530 -0.180100
v -0.317739 10.038666 0.271839
v -0.317739 10.038667 -0.247637
v -2.657090 8.944760 0.144508
v -2.657090 8.944761 -0.061249
v -0.958843 9.159667 -2.041837
v -0.747346 9.159667 -2.041837
v -0.378245 8.201095 -0.110721
v 0.262243 8.201095 -0.110721
v 1.001723 9.541306 -0.017551
v 1.001723 9.541306 0.284239
v -0.218612 8.141255 -0.967550
v 0.102610 8.141255 -0.967550
vt 0.781250 0.535156
vt 0.781250 0.535156
vt 0.781250 0.535156
vt 0.781250 0.535156
vt 0.781250 0.535156
vt 0.781250 0.535156
vt 0.781250 0.535156
vt 0.781250 0.535156
vt 0.781250 0.535156
vt 0.781250 0.535156
vt 0.781250 0.535156
vt 0.781250 0.535156
vt 0.781250 0.535156
vt 0.781250 0.535156
vt 0.781250 0.535156
vt 0.781250 0.535156
vt 0.781250 0.535156
vt 0.781250 0.535156
vt 0.781250 0.535156
vt 0.781250 0.535156
vt 0.781250 0.535156
vt 0.781250 0.535156
vt 0.781250 0.535156
vt 0.781250 0.535156
vt 0.781250 0.535156
vt 0.781250 0.535156
vt 0.781250 0.535156
vt 0.781250 0.535156
vt 0.781250 0.535156
vt 0.781250 0.535156
vt 0.781250 0.535156
vt 0.781250 0.535156
vt 0.781250 0.535156
vt 0.781250 0.535156
vt 0.781250 0.535156
vt 0.781250 0.535156
vt 0.781250 0.535156
vt 0.781250 0.535156
vt 0.781250 0.535156
vt 0.781250 0.535156
vt 0.781250 0.535156
vt 0.781250 0.535156
vt 0.781250 0.535156
vt 0.781250 0.535156
vt 0.781250 0.535156
vt 0.781250 0.535156
vt 0.781250 0.535156
vt 0.781250 0.535156
vt 0.781250 0.535156
vt 0.781250 0.535156
vt 0.781250 0.535156
vt 0.781250 0.535156
vt 0.781250 0.535156
vt 0.781250 0.535156
vt 0.781250 0.535156
vt 0.781250 0.535156
vt 0.781250 0.535156
vt 0.781250 0.535156
vt 0.781250 0.535156
vt 0.781250 0.535156
vt 0.781250 0.535156
vt 0.781250 0.535156
vt 0.781250 0.535156
vt 0.781250 0.535156
vt 0.781250 0.535156
vt 0.781250 0.535156
vt 0.781250 0.535156
vt 0.781250 0.535156
vt 0.781250 0.535156
vt 0.781250 0.535156
vt 0.781250 0.535156
vt 0.781250 0.535156
vt 0.781250 0.535156
vt 0.781250 0.535156
vt 0.781250 0.535156
vt 0.781250 0.535156
vt 0.781250 0.535156
vt 0.781250 0.535156
vt 0.781250 0.535156
vt 0.781250 0.535156
vt 0.781250 0.535156
vt 0.074219 0.910156
vt 0.074219 0.910156
vt 0.074219 0.910156
vt 0.074219 0.910156
vt 0.781250 0.535156
vt 0.781250 0.535156
vt 0.781250 0.535156
vt 0.781250 0.535156
vt 0.781250 0.535156
vt 0.781250 0.535156
vt 0.781250 0.535156
vt 0.781250 0.535156
vt 0.781250 0.535156
vt 0.781250 0.535156
vt 0.781250 0.535156
vt 0.781250 0.535156
vt 0.074219 0.910156
vt 0.074219 0.910156
vt 0.074219 0.910156
vt 0.074219 0.910156
vt 0.781250 0.535156
vt 0.781250 0.535156
vt 0.781250 0.535156
vt 0.781250 0.535156
vt 0.781250 0.535156
vt 0.781250 0.535156
vt 0.781250 0.535156
vt 0.781250 0.535156
vt 0.781250 0.535156
vt 0.781250 0.535156
vt 0.781250 0.535156
vt 0.074219 0.910156
vt 0.074219 0.910156
vt 0.074219 0.910156
vt 0.074219 0.910156
vt 0.781250 0.535156
vt 0.781250 0.535156
vt 0.074219 0.910156
vt 0.074219 0.910156
vt 0.074219 0.910156
vt 0.074219 0.910156
vt 0.781250 0.535156
vt 0.781250 0.535156
vt 0.074219 0.910156
vt 0.074219 0.910156
vt 0.074219 0.910156
vt 0.074219 0.910156
vt 0.781250 0.535156
vt 0.781250 0.535156
vt 0.781250 0.535156
vt 0.781250 0.535156
vt 0.781250 0.535156
vt 0.781250 0.535156
vt 0.781250 0.535156
vt 0.781250 0.535156
vt 0.781250 0.535156
vt 0.781250 0.535156
vt 0.781250 0.535156
vt 0.781250 0.535156
vt 0.781250 0.535156
vt 0.781250 0.535156
vt 0.781250 0.535156
vt 0.781250 0.535156
vt 0.781250 0.535156
vt 0.781250 0.535156
vt 0.781250 0.535156
vt 0.781250 0.535156
vt 0.781250 0.535156
vt 0.781250 0.535156
vt 0.781250 0.535156
vt 0.781250 0.535156
vt 0.781250 0.535156
vt 0.781250 0.535156
vt 0.781250 0.535156
vt 0.781250 0.535156
vt 0.781250 0.535156
vt 0.781250 0.535156
vt 0.781250 0.535156
vt 0.781250 0.535156
vt 0.781250 0.535156
vt 0.781250 0.535156
vt 0.781250 0.535156
vt 0.781250 0.535156
vt 0.781250 0.535156
vt 0.781250 0.535156
vt 0.781250 0.535156
vt 0.781250 0.535156
vt 0.781250 0.535156
vt 0.781250 0.535156
vt 0.781250 0.535156
vt 0.781250 0.535156
vt 0.781250 0.535156
vt 0.781250 0.535156
vt 0.781250 0.535156
vt 0.781250 0.535156
vt 0.781250 0.535156
vt 0.781250 0.535156
vt 0.781250 0.535156
vt 0.781250 0.535156
vt 0.781250 0.535156
vt 0.781250 0.535156
vt 0.781250 0.535156
vt 0.781250 0.535156
vt 0.781250 0.535156
vt 0.781250 0.535156
vt 0.781250 0.535156
vt 0.781250 0.535156
vt 0.781250 0.535156
vt 0.781250 0.535156
vt 0.781250 0.535156
vt 0.781250 0.535156
vt 0.074219 0.910156
vt 0.074219 0.910156
vt 0.074219 0.910156
vt 0.074219 0.910156
vt 0.781250 0.535156
vt 0.781250 0.535156
vt 0.781250 0.535156
vt 0.781250 0.535156
vt 0.781250 0.535156
vt 0.781250 0.535156
vt 0.074219 0.910156
vt 0.074219 0.910156
vt 0.074219 0.910156
vt 0.074219 0.910156
vt 0.074219 0.910156
vt 0.074219 0.910156
vt 0.074219 0.910156
vt 0.074219 0.910156
vt 0.074219 0.910156
vt 0.074219 0.910156
vt 0.074219 0.910156
vt 0.074219 0.910156
vt 0.074219 0.910156
vt 0.074219 0.910156
vt 0.074219 0.910156
vt 0.074219 0.910156
vt 0.074219 0.910156
vt 0.074219 0.910156
vt 0.074219 0.910156
vt 0.074219 0.910156
vt 0.074219 0.910156
vt 0.074219 0.910156
vt 0.074219 0.910156
vt 0.074219 0.910156
vt 0.074219 0.910156
vt 0.074219 0.910156
vt 0.074219 0.910156
vt 0.074219 0.910156
vt 0.074219 0.910156
vt 0.074219 0.910156
vn -1.0000 0.0000 0.0000
vn 0.0000 0.0469 0.9989
vn -0.9989 0.0469 0.0000
vn 0.0000 0.0592 -0.9982
vn 0.9989 0.0469 0.0000
vn 0.0000 0.0469 -0.9989
vn 0.0000 0.2881 -0.9576
vn 1.0000 0.0000 0.0000
vn 0.0000 0.9440 -0.3301
vn 0.0000 0.1622 0.9868
vn 0.9809 0.1944 0.0000
vn 0.1994 -0.9799 0.0000
vn 0.0000 -0.2922 0.9564
vn -0.9977 0.0681 -0.0000
vn 0.0000 -0.9333 -0.3591
vn 0.0000 0.0000 -1.0000
vn -0.9963 0.0856 0.0000
vn 0.0000 0.2776 0.9607
vn 0.0000 -0.1507 -0.9886
vn 0.9977 0.0681 0.0000
vn 0.0000 1.0000 0.0000
vn 0.0000 0.0856 0.9963
vn 0.0000 0.0856 -0.9963
vn 0.9963 0.0856 0.0000
vn 0.0000 -0.9999 -0.0106
vn 0.0000 0.9408 -0.3389
vn 0.0000 -0.1622 -0.9868
vn 0.9837 -0.0292 -0.1774
vn 0.0000 0.8914 0.4533
vn -0.9837 -0.0292 -0.1774
vn 0.0000 0.0000 1.0000
vn 0.0000 0.0592 0.9982
vn -0.9982 0.0592 0.0000
vn 0.9982 0.0592 0.0000
vn 0.9958 0.0919 0.0000
vn 0.0000 0.1799 0.9837
vn 0.0000 0.0919 -0.9958
vn 0.0000 0.0919 0.9958
vn -0.9958 0.0919 0.0000
vn 0.0000 -1.0000 0.0000
vn -0.9837 0.1799 0.0000
vn 0.9837 0.1799 0.0000
vn 0.0000 0.1799 -0.9837
vn -0.9917 0.0208 0.1268
vn 0.0000 -0.9585 -0.2852
vn 0.9917 0.0208 0.1268
vn 0.9979 0.0104 0.0635
vn -0.0992 -0.3087 0.9460
vn -0.1667 -0.9860 0.0000
vn -0.9809 -0.1944 0.0000
vn 0.0065 -0.2910 0.9567
vn -0.9983 -0.0577 -0.0000
vn -0.1307 0.2632 -0.9559
vn 0.0955 0.9954 0.0000
vn -0.0206 0.2884 -0.9573
vn -0.0097 0.2904 -0.9569
vn 0.2242 -0.9745 0.0000
vn 0.0323 -0.2862 0.9576
vn 0.1500 0.3159 -0.9368
vn -0.1644 0.9864 0.0000
vn -0.1420 -0.9899 0.0000
vn -0.0000 0.2922 -0.9564
vn 0.2085 0.0291 -0.9776
vn 0.1017 -0.2722 0.9569
vn 0.0000 -0.9551 -0.2963
vn -0.9908 -0.0219 -0.1334
vn 0.9980 0.0101 0.0617
vn 0.0000 -0.9620 0.2730
vn -0.9979 0.0104 0.0635
vn 0.0000 -0.9749 0.2228
vn 0.0000 0.9949 -0.1010
vn -0.0823 0.9288 0.3613
vn 0.8413 0.0016 0.5406
vn -0.9101 -0.0548 -0.4108
vn -0.9121 -0.0456 -0.4075
vn 0.1686 -0.0036 0.9857
vn 0.0932 -0.9710 -0.2204
vn -0.9545 -0.2981 0.0122
vn 0.9515 0.2479 0.1823
vn 0.1480 -0.0087 0.9890
vn 0.8329 0.0385 0.5520
vn 0.9983 0.0577 0.0000
vn 0.0195 0.9998 0.0000
vn -0.0086 -0.1501 -0.9886
vn 0.3354 -0.9421 -0.0000
vn -0.1842 0.2844 0.9408
vn 0.2874 -0.1635 -0.9438
vn -0.1165 -0.9932 -0.0000
vn -0.3682 0.2812 0.8862
vn 0.0000 -0.8929 -0.4502
vn 0.0000 -0.9967 0.0808
vn 0.8860 -0.0102 -0.4637
vn -0.9518 0.1087 0.2868
vn 0.0000 0.9191 0.3941
vn -0.8155 0.1412 0.5613
vn 0.8033 -0.0358 -0.5945
vn 0.0938 0.9956 0.0000
vn 0.9835 0.0109 -0.1807
vn 0.0000 -0.0058 -1.0000
vn 0.9802 0.0000 0.1981
vn -0.9802 0.0000 0.1981
vn 0.0000 0.8632 0.5049
vn 0.3283 -0.9446 0.0000
vn 0.1859 -0.0038 -0.9826
vn 0.1869 0.0000 0.9824
vn 0.0938 -0.9956 0.0000
vn -0.5383 0.8427 0.0000
vn 0.2009 0.0000 0.9796
vn -0.1950 0.9808 0.0000
vn 0.0950 0.0000 -0.9955
vn 0.0900 0.0000 -0.9959
vn 0.5887 -0.8084 0.0000
vn 0.0900 0.0000 0.9959
vn 0.0954 -0.9954 0.0000
vn 0.2052 -0.9787 0.0000
vn 0.1620 0.2841 0.9450
vn 0.1956 -0.1347 -0.9714
vn -0.0713 0.9975 0.0000
vn 0.9761 0.2171 0.0000
vn -0.9701 -0.2425 0.0000
vn 0.0956 -0.9954 0.0000
vn -0.0754 0.2707 0.9597
vn 0.1617 -0.1196 -0.9796
vn 0.0822 0.2988 0.9508
vn 0.2752 -0.9614 0.0000
vn 0.8542 0.5200 0.0000
vn 0.5658 -0.8245 0.0000
vn -0.4704 0.8825 0.0000
vn 0.1505 -0.0967 -0.9839
vn 0.0000 0.9679 0.2513
vn -0.9835 0.0109 -0.1807
vn 0.0000 -0.9936 -0.1133
vn 0.9989 0.0257 -0.0381
vn -0.9975 0.0195 -0.0678
vn 0.9975 0.0195 -0.0678
vn 0.0000 -0.9477 -0.3191
vn 0.0000 0.6656 -0.7463
vn 0.0000 -0.7322 -0.6811
vn 0.0000 0.7604 0.6495
vn -0.9989 0.0257 -0.0381
vn -0.2794 0.9602 0.0000
vn 0.2449 0.9695 0.0000
vn 0.0000 0.9100 0.4147
vn 0.0703 0.9975 0.0000
vn 0.0000 0.9737 -0.2280
vn -0.4236 0.9059 0.0000
vn 0.0000 0.9976 -0.0697
vn -0.0751 -0.0217 0.9969
vn -0.0852 0.0125 -0.9963
vn -0.0608 0.0139 -0.9981
vn -0.0450 -0.0200 0.9988
vn 0.0000 0.0174 -0.9998
vn 0.8777 0.0590 -0.4755
vn 0.0000 -0.0174 0.9998
vn 0.9806 0.0599 -0.1869
vn -0.9442 -0.0602 0.3239
vn -0.9823 -0.0536 -0.1793
vn 0.0802 0.0220 -0.9965
vn 0.1058 -0.0112 0.9943
usemtl Material
s off
f 35/1/1 36/2/1 10/3/1 12/4/1
f 4/5/2 3/6/2 7/7/2 8/8/2
f 8/8/3 7/7/3 5/9/3 6/10/3
f 6/10/4 2/11/4 39/12/4 37/13/4
f 2/11/5 1/14/5 3/6/5 4/5/5
f 6/10/6 5/9/6 1/14/6 2/11/6
f 78/15/7 79/16/7 16/17/7 15/18/7
f 33/19/8 34/20/8 11/21/8 9/22/8
f 12/4/9 11/21/9 31/23/9 32/24/9
f 36/2/10 33/19/10 9/22/10 10/3/10
f 124/25/1 123/26/1 18/27/1 20/28/1
f 76/29/11 78/15/11 15/18/11 13/30/11
f 79/16/12 73/31/12 61/32/12 62/33/12
f 73/31/13 76/29/13 13/30/13 14/34/13
f 99/35/14 98/36/14 22/37/14 24/38/14
f 123/26/15 129/39/15 138/40/15 137/41/15
f 130/42/16 124/25/16 20/28/16 19/43/16
f 129/39/8 130/42/8 19/43/8 17/44/8
f 24/38/17 22/37/17 26/45/17 28/46/17
f 98/36/18 102/47/18 21/48/18 22/37/18
f 103/49/19 99/35/19 24/38/19 23/50/19
f 102/47/20 103/49/20 23/50/20 21/48/20
f 27/51/21 28/46/21 26/45/21 25/52/21
f 22/37/22 21/48/22 25/52/22 26/45/22
f 23/50/23 24/38/23 28/46/23 27/51/23
f 21/48/24 23/50/24 27/51/24 25/52/24
f 34/20/25 35/1/25 29/53/25 30/54/25
f 32/24/26 31/23/26 81/55/26 84/56/26
f 5/9/1 7/7/1 36/2/1 35/1/1
f 3/6/8 1/14/8 34/20/8 33/19/8
f 1/14/27 5/9/27 35/1/27 34/20/27
f 11/21/28 34/20/28 30/54/28 31/23/28
f 33/19/29 36/2/29 53/57/29 54/58/29
f 35/1/30 12/4/30 32/24/30 29/53/30
f 40/59/31 38/60/31 42/61/31 44/62/31
f 4/5/32 8/8/32 38/60/32 40/59/32
f 8/8/33 6/10/33 37/13/33 38/60/33
f 2/11/34 4/5/34 40/59/34 39/12/34
f 43/63/35 44/62/35 48/64/35 47/65/35
f 38/60/31 37/13/31 41/66/31 42/61/31
f 39/12/31 40/59/31 44/62/31 43/63/31
f 37/13/31 39/12/31 43/63/31 41/66/31
f 48/64/36 46/67/36 50/68/36 52/69/36
f 41/66/37 43/63/37 47/65/37 45/70/37
f 44/62/38 42/61/38 46/67/38 48/64/38
f 42/61/39 41/66/39 45/70/39 46/67/39
f 49/71/40 51/72/40 52/69/40 50/68/40
f 46/67/41 45/70/41 49/71/41 50/68/41
f 47/65/42 48/64/42 52/69/42 51/72/42
f 45/70/43 47/65/43 51/72/43 49/71/43
f 36/2/44 7/7/44 55/73/44 53/57/44
f 7/7/45 3/6/45 56/74/45 55/73/45
f 3/6/46 33/19/46 54/58/46 56/74/46
f 56/74/47 54/58/47 87/75/47 88/76/47
f 61/32/48 64/77/48 58/78/48 60/79/48
f 62/33/49 61/32/49 60/79/49 59/80/49
f 59/80/50 60/79/50 58/78/50 57/81/50
f 73/31/51 14/34/51 64/77/51 61/32/51
f 107/82/52 106/83/52 196/84/52 197/85/52
f 16/17/53 79/16/53 62/33/53 63/86/53
f 64/77/54 63/86/54 57/81/54 58/78/54
f 63/86/55 62/33/55 59/80/55 57/81/55
f 70/87/56 72/88/56 68/89/56 67/90/56
f 69/91/57 70/87/57 67/90/57 65/92/57
f 65/92/11 67/90/11 68/89/11 66/93/11
f 76/29/58 75/94/58 69/91/58 71/95/58
f 77/96/59 78/15/59 72/88/59 70/87/59
f 72/88/60 71/95/60 66/93/60 68/89/60
f 75/94/61 77/96/61 70/87/61 69/91/61
f 77/96/62 80/97/62 79/16/62 78/15/62
f 11/21/62 12/4/62 80/97/62 77/96/62
f 153/98/63 104/99/63 191/100/63 202/101/63
f 9/22/11 11/21/11 77/96/11 75/94/11
f 80/97/50 74/102/50 73/31/50 79/16/50
f 71/95/64 69/91/64 65/92/64 66/93/64
f 12/4/50 10/3/50 74/102/50 80/97/50
f 10/3/65 9/22/65 89/103/65 90/104/65
f 29/53/66 32/24/66 84/56/66 83/105/66
f 31/23/67 30/54/67 82/106/67 81/55/67
f 30/54/68 29/53/68 83/105/68 82/106/68
f 82/106/27 83/105/27 84/56/27 81/55/27
f 74/102/13 75/94/13 76/29/13 73/31/13
f 85/107/10 88/76/10 87/75/10 86/108/10
f 53/57/69 55/73/69 85/107/69 86/108/69
f 55/73/70 56/74/70 88/76/70 85/107/70
f 54/58/71 53/57/71 86/108/71 87/75/71
f 91/109/72 92/110/72 96/111/72 95/112/72
f 9/22/73 75/94/73 91/109/73 89/103/73
f 74/102/74 10/3/74 90/104/74 92/110/74
f 74/113/75 92/114/75 190/115/75 188/116/75
f 94/117/76 93/118/76 95/112/76 96/111/76
f 90/104/77 89/103/77 93/118/77 94/117/77
f 92/110/78 90/104/78 94/117/78 96/111/78
f 89/103/79 91/109/79 95/112/79 93/118/79
f 101/119/80 154/120/80 203/121/80 192/122/80
f 101/123/20 104/124/20 103/49/20 102/47/20
f 91/125/81 75/126/81 187/127/81 189/128/81
f 104/124/19 100/129/19 99/35/19 103/49/19
f 18/27/18 17/44/18 101/123/18 97/130/18
f 97/130/18 101/123/18 102/47/18 98/36/18
f 20/28/14 18/27/14 97/130/14 100/129/14
f 154/120/82 153/98/82 202/101/82 203/121/82
f 106/131/83 107/132/83 111/133/83 110/134/83
f 99/35/84 100/129/84 108/135/84 107/132/84
f 100/129/85 97/130/85 105/136/85 108/135/85
f 97/130/86 98/36/86 106/131/86 105/136/86
f 112/137/14 109/138/14 110/134/14 111/133/14
f 107/132/87 108/135/87 112/137/87 111/133/87
f 108/135/88 105/136/88 109/138/88 112/137/88
f 105/136/89 106/131/89 110/134/89 109/138/89
f 114/139/90 113/140/90 117/141/90 118/142/90
f 19/43/91 20/28/91 113/140/91 114/139/91
f 104/124/92 19/43/92 114/139/92 116/143/92
f 20/28/93 100/129/93 115/144/93 113/140/93
f 118/142/19 117/141/19 119/145/19 120/146/19
f 115/144/94 116/143/94 120/146/94 119/145/94
f 113/140/95 115/144/95 119/145/95 117/141/95
f 116/143/96 114/139/96 118/142/96 120/146/96
f 13/30/8 15/18/8 132/147/8 127/148/8
f 131/149/97 128/150/97 140/151/97 141/152/97
f 128/150/8 131/149/8 130/42/8 129/39/8
f 132/147/98 15/18/98 168/153/98 170/154/98
f 132/147/99 126/155/99 125/156/99 131/149/99
f 131/149/16 125/156/16 124/25/16 130/42/16
f 14/34/31 13/30/31 127/148/31 121/157/31
f 121/157/31 127/148/31 128/150/31 122/158/31
f 122/158/31 128/150/31 129/39/31 123/26/31
f 16/17/1 14/34/1 121/157/1 126/155/1
f 126/155/1 121/157/1 122/158/1 125/156/1
f 125/156/1 122/158/1 123/26/1 124/25/1
f 131/149/31 125/156/31 133/159/31 134/160/31
f 137/41/31 138/40/31 135/161/31 136/162/31
f 129/39/100 17/44/100 135/161/100 138/40/100
f 18/27/101 123/26/101 137/41/101 136/162/101
f 17/44/102 18/27/102 136/162/102 135/161/102
f 139/163/103 142/164/103 146/165/103 143/166/103
f 132/147/104 131/149/104 141/152/104 142/164/104
f 128/150/105 127/148/105 139/163/105 140/151/105
f 127/148/106 132/147/106 142/164/106 139/163/106
f 145/167/107 144/168/107 148/169/107 149/170/107
f 140/151/108 139/163/108 143/166/108 144/168/108
f 141/152/109 140/151/109 144/168/109 145/167/109
f 142/164/110 141/152/110 145/167/110 146/165/110
f 147/171/8 150/172/8 149/170/8 148/169/8
f 146/165/111 145/167/111 149/170/111 150/172/111
f 143/166/112 146/165/112 150/172/112 147/171/112
f 144/168/113 143/166/113 147/171/113 148/169/113
f 153/173/114 154/174/114 158/175/114 157/176/114
f 17/44/115 19/43/115 151/177/115 152/178/115
f 101/123/116 17/44/116 152/178/116 154/174/116
f 19/43/117 104/124/117 153/173/117 151/177/117
f 157/176/118 158/175/118 162/179/118 161/180/118
f 151/177/119 153/173/119 157/176/119 155/181/119
f 154/174/120 152/178/120 156/182/120 158/175/120
f 152/178/121 151/177/121 155/181/121 156/182/121
f 162/179/122 160/183/122 164/184/122 166/185/122
f 155/181/123 157/176/123 161/180/123 159/186/123
f 158/175/124 156/182/124 160/183/124 162/179/124
f 156/182/125 155/181/125 159/186/125 160/183/125
f 164/184/126 163/187/126 165/188/126 166/185/126
f 160/183/127 159/186/127 163/187/127 164/184/127
f 161/180/128 162/179/128 166/185/128 165/188/128
f 159/186/129 161/180/129 165/188/129 163/187/129
f 169/189/130 170/154/130 174/190/130 173/191/130
f 16/17/131 126/155/131 169/189/131 167/192/131
f 71/193/82 72/194/82 183/195/82 186/196/82
f 15/18/132 16/17/132 167/192/132 168/153/132
f 174/190/133 172/197/133 176/198/133 178/199/133
f 167/192/134 169/189/134 173/191/134 171/200/134
f 170/154/135 168/153/135 172/197/135 174/190/135
f 168/153/136 167/192/136 171/200/136 172/197/136
f 176/198/137 175/201/137 177/202/137 178/199/137
f 172/197/138 171/200/138 175/201/138 176/198/138
f 173/191/139 174/190/139 178/199/139 177/202/139
f 171/200/140 173/191/140 177/202/140 175/201/140
f 179/203/141 180/204/141 182/205/141 181/206/141
f 184/207/142 185/208/142 186/196/142 183/195/142
f 187/127/143 188/116/143 190/115/143 189/128/143
f 191/100/144 192/122/144 203/121/144 202/101/144
f 193/209/145 191/100/145 199/210/145 198/211/145
f 194/212/146 195/213/146 197/85/146 196/84/146
f 200/214/147 201/215/147 205/216/147 204/217/147
f 78/218/52 76/219/52 185/208/52 184/207/52
f 64/220/148 14/221/148 179/203/148 181/206/148
f 99/222/149 107/82/149 197/85/149 195/213/149
f 16/223/150 63/224/150 182/205/150 180/204/150
f 106/83/151 98/225/151 194/212/151 196/84/151
f 170/226/152 169/227/152 204/217/152 205/216/152
f 104/99/52 101/119/52 192/122/52 191/100/52
f 116/228/152 115/229/152 198/211/152 199/210/152
f 14/221/82 16/223/82 180/204/82 179/203/82
f 104/99/153 116/228/153 199/210/153 191/100/153
f 126/230/154 132/231/154 201/215/154 200/214/154
f 132/231/155 170/226/155 205/216/155 201/215/155
f 100/232/154 104/99/154 191/100/154 193/209/154
f 115/229/156 100/232/156 193/209/156 198/211/156
f 75/126/152 74/113/152 188/116/152 187/127/152
f 169/227/157 126/230/157 200/214/157 204/217/157
f 72/194/158 78/218/158 184/207/158 183/195/158
f 76/219/159 71/193/159 186/196/159 185/208/159
f 92/114/154 91/125/154 189/128/154 190/115/154
f 63/224/52 64/220/52 181/206/52 182/205/52
f 98/225/82 99/222/82 195/213/82 194/212/82
